<svg version="1.0" viewBox="168.630361 123.85049529780565 330.18041999999997 101.10244514106583" id="svg2" xmlns:xlink="http://www.w3.org/1999/xlink" xmlns="http://www.w3.org/2000/svg" style="max-height: 500px" width="330.18041999999997" height="101.10244514106583">
  
  <g transform="translate(-21.353 -252.84)" id="layer1">
    <g id="g3551">
      <path d="m22.853 254.34h698.02v96.98h-698.02l0.003-96.98z" style="stroke:#000000;stroke-linecap:round;stroke-width:3;fill:#c7c7c7" id="rect2383"/>
      <path d="m678.3 309.4c-2.92 0-4.97 0.25-6.16 0.75-1.19 0.49-1.79 1.31-1.79 2.47s0.6 2 1.79 2.5c1.19 0.49 3.24 0.73 6.16 0.73 2.95 0 5.03-0.24 6.23-0.73 1.21-0.5 1.82-1.34 1.82-2.5 0-1.15-0.61-1.97-1.82-2.47-1.2-0.5-3.28-0.75-6.23-0.75m0.05-5.41c3.86 0 6.85 0.75 8.95 2.25 2.09 1.5 3.14 3.63 3.14 6.38 0 2.77-1.05 4.9-3.14 6.4-2.1 1.5-5.09 2.25-8.95 2.25-3.88 0-6.86-0.75-8.96-2.25s-3.15-3.63-3.15-6.4c0-2.75 1.05-4.88 3.15-6.38s5.08-2.25 8.96-2.25m11.12-4.28h-4.31c0.45-0.86 0.79-1.69 1.01-2.47 0.22-0.79 0.33-1.57 0.33-2.34 0-1.62-0.49-2.87-1.48-3.77-1-0.9-2.48-1.43-4.44-1.59 0.52 0.64 0.91 1.32 1.17 2.05 0.26 0.72 0.39 1.5 0.39 2.34 0 2.15-0.69 3.88-2.08 5.2s-3.22 1.97-5.5 1.97c-2.51 0-4.52-0.73-6.03-2.2s-2.26-3.44-2.26-5.91c0-2.74 1.02-4.86 3.08-6.36 2.05-1.5 4.95-2.25 8.7-2.25 3.85 0 6.88 0.88 9.09 2.64 2.2 1.75 3.3 4.16 3.3 7.21 0 0.99-0.08 1.93-0.25 2.84-0.16 0.9-0.4 1.78-0.72 2.64m-11.23-6.69c0-0.94-0.34-1.66-1.02-2.14-0.69-0.48-1.71-0.72-3.08-0.72-1.35 0-2.37 0.24-3.06 0.72s-1.03 1.2-1.03 2.14c0 0.95 0.34 1.67 1.03 2.14 0.69 0.48 1.71 0.72 3.06 0.72 1.37 0 2.39-0.24 3.08-0.72 0.68-0.47 1.02-1.19 1.02-2.14" style="fill:#ffffff" id="text3155"/>
      <path d="m54.033 291.08v9.23h-4.421v-15.25h4.421l7.516 7.66c0.688 0.69 1.359 1.19 2.016 1.52 0.656 0.33 1.338 0.5 2.047 0.5 1.093 0 1.974-0.34 2.64-1 0.667-0.66 1-1.54 1-2.63 0-0.84-0.203-1.77-0.609-2.78-0.396-1-0.99-2.07-1.781-3.22h5.125c0.448 1.22 0.786 2.42 1.015 3.61 0.24 1.2 0.36 2.37 0.36 3.52 0 2.51-0.615 4.45-1.844 5.84s-2.943 2.09-5.141 2.09c-1.271 0-2.458-0.29-3.562-0.89-1.094-0.58-2.563-1.82-4.407-3.72l-4.375-4.48m18.907 13.69v15.82h-3.391l-19.937-8.18v-5.28l18.906 7.75v-10.11h4.422" style="fill:#ffffff" id="text3159"/>
      <rect x="26.388" y="257.05" width="22.223" height="5.5558" style="fill:#ffffff" id="rect3165"/>
      <rect x="26.388" y="266.61" width="22.223" height="5.5558" style="fill:#ffffff" id="rect3167"/>
      <rect x="26.388" y="276.16" width="22.223" height="5.5558" style="fill:#ffffff" id="rect3169"/>
      <rect x="26.388" y="285.72" width="22.223" height="5.5558" style="fill:#ffffff" id="rect3173"/>
      <rect x="26.388" y="295.27" width="22.223" height="5.5558" style="fill:#ffffff" id="rect3175"/>
      <rect x="26.388" y="304.83" width="22.223" height="5.5558" style="fill:#ffffff" id="rect3179"/>
      <rect x="26.388" y="314.38" width="22.223" height="5.5558" style="fill:#ffffff" id="rect3181"/>
      <rect x="26.388" y="323.94" width="22.223" height="5.5558" style="fill:#ffffff" id="rect3185"/>
      <rect x="26.388" y="333.5" width="22.223" height="5.5558" style="fill:#ffffff" id="rect3187"/>
      <rect x="26.388" y="343.05" width="22.223" height="5.5558" style="fill:#ffffff" id="rect3189"/>
      <rect x="693.88" y="257.05" width="22.223" height="5.5558" style="fill:#ffffff" id="rect3205"/>
      <rect x="693.88" y="266.61" width="22.223" height="5.5558" style="fill:#ffffff" id="rect3207"/>
      <rect x="693.88" y="276.16" width="22.223" height="5.5558" style="fill:#ffffff" id="rect3209"/>
      <rect x="693.88" y="285.72" width="22.223" height="5.5558" style="fill:#ffffff" id="rect3211"/>
      <rect x="693.88" y="295.27" width="22.223" height="5.5558" style="fill:#ffffff" id="rect3213"/>
      <rect x="693.88" y="304.83" width="22.223" height="5.5558" style="fill:#ffffff" id="rect3215"/>
      <rect x="693.88" y="314.38" width="22.223" height="5.5558" style="fill:#ffffff" id="rect3217"/>
      <rect x="693.88" y="323.94" width="22.223" height="5.5558" style="fill:#ffffff" id="rect3219"/>
      <rect x="693.88" y="333.5" width="22.223" height="5.5558" style="fill:#ffffff" id="rect3221"/>
      <rect x="693.88" y="343.05" width="22.223" height="5.5558" style="fill:#ffffff" id="rect3223"/>
      <path d="m637.19 300.05h22.23v5.56h-22.23v-5.56z" style="fill:#ffffff" id="rect3235"/>
      <path d="m593.19 300.05h22.23v5.56h-22.23v-5.56z" style="fill:#ffffff" id="rect3249"/>
      <path d="m543.19 300.05h22.23v5.56h-22.23v-5.56z" style="fill:#ffffff" id="rect3251"/>
      <path d="m543.19 300.05h22.23v5.56h-22.23v-5.56z" style="fill:#ffffff" id="rect3253"/>
      <path d="m401.19 300.05h22.23v5.56h-22.23v-5.56z" style="fill:#ffffff" id="rect3255"/>
      <path d="m357.19 300.05h22.23v5.56h-22.23v-5.56z" style="fill:#ffffff" id="rect3257"/>
      <path d="m307.19 300.05h22.23v5.56h-22.23v-5.56z" style="fill:#ffffff" id="rect3259"/>
      <path d="m261.19 300.05h22.23v5.56h-22.23v-5.56z" style="fill:#ffffff" id="rect3261"/>
      <path d="m217.19 300.05h22.23v5.56h-22.23v-5.56z" style="fill:#ffffff" id="rect3263"/>
      <path d="m167.19 300.05h22.23v5.56h-22.23v-5.56z" style="fill:#ffffff" id="rect3265"/>
      <path d="m121.19 300.05h22.23v5.56h-22.23v-5.56z" style="fill:#ffffff" id="rect3267"/>
      <path d="m77.193 300.05h22.223v5.56h-22.223v-5.56z" style="fill:#ffffff" id="rect3269"/>
      <path d="m555.61 268.62h51.45v3.06h-51.45v-3.06z" style="fill:#ffffff" id="rect3271"/>
      <path d="m555.61 272.84h51.45v3.05h-51.45v-3.05z" style="fill:#ffffff" id="rect3273"/>
      <path d="m555.61 277.12h51.45v3.06h-51.45v-3.06z" style="fill:#ffffff" id="rect3275"/>
      <path d="m555.61 281.05h51.45v3.06h-51.45v-3.06z" style="fill:#ffffff" id="rect3277"/>
      <path d="m555.61 323.34h51.45v3.05h-51.45v-3.05z" style="fill:#ffffff" id="rect3279"/>
      <path d="m555.61 327.55h51.45v3.06h-51.45v-3.06z" style="fill:#ffffff" id="rect3281"/>
      <path d="m555.61 331.84h51.45v3.05h-51.45v-3.05z" style="fill:#ffffff" id="rect3283"/>
      <path d="m555.61 335.77h51.45v3.05h-51.45v-3.05z" style="fill:#ffffff" id="rect3285"/>
      <path d="m137.61 268.62h51.45v3.06h-51.45v-3.06z" style="fill:#ffffff" id="rect3319"/>
      <path d="m137.61 272.84h51.45v3.05h-51.45v-3.05z" style="fill:#ffffff" id="rect3321"/>
      <path d="m137.61 277.12h51.45v3.06h-51.45v-3.06z" style="fill:#ffffff" id="rect3323"/>
      <path d="m137.61 281.05h51.45v3.06h-51.45v-3.06z" style="fill:#ffffff" id="rect3325"/>
      <path d="m137.61 323.34h51.45v3.05h-51.45v-3.05z" style="fill:#ffffff" id="rect3327"/>
      <path d="m137.61 327.55h51.45v3.06h-51.45v-3.06z" style="fill:#ffffff" id="rect3329"/>
      <path d="m137.61 331.84h51.45v3.05h-51.45v-3.05z" style="fill:#ffffff" id="rect3331"/>
      <path d="m137.61 335.77h51.45v3.05h-51.45v-3.05z" style="fill:#ffffff" id="rect3333"/>
      <path d="m447.19 300.05h22.23v5.56h-22.23v-5.56z" style="fill:#ffffff" id="rect3335"/>
      <path d="m497.19 300.05h22.23v5.56h-22.23v-5.56z" style="fill:#ffffff" id="rect3337"/>
    </g>
    <g id="g3606">
      <path d="m22.853 378.34h698.02v96.98h-698.02l0.003-96.98z" style="stroke:#000000;stroke-linecap:round;stroke-width:3;fill:none" id="rect3339"/>
      <path d="m678.3 433.4c-2.92 0-4.97 0.25-6.16 0.75-1.19 0.49-1.79 1.31-1.79 2.47s0.6 2 1.79 2.5c1.19 0.49 3.24 0.73 6.16 0.73 2.95 0 5.03-0.24 6.23-0.73 1.21-0.5 1.82-1.34 1.82-2.5 0-1.15-0.61-1.97-1.82-2.47-1.2-0.5-3.28-0.75-6.23-0.75m0.05-5.41c3.86 0 6.85 0.75 8.95 2.25 2.09 1.5 3.14 3.63 3.14 6.38 0 2.77-1.05 4.9-3.14 6.4-2.1 1.5-5.09 2.25-8.95 2.25-3.88 0-6.86-0.75-8.96-2.25s-3.15-3.63-3.15-6.4c0-2.75 1.05-4.88 3.15-6.38s5.08-2.25 8.96-2.25m11.12-4.28h-4.31c0.45-0.86 0.79-1.69 1.01-2.47 0.22-0.79 0.33-1.57 0.33-2.34 0-1.62-0.49-2.87-1.48-3.77-1-0.9-2.48-1.43-4.44-1.59 0.52 0.64 0.91 1.32 1.17 2.05 0.26 0.72 0.39 1.5 0.39 2.34 0 2.15-0.69 3.88-2.08 5.2s-3.22 1.97-5.5 1.97c-2.51 0-4.52-0.73-6.03-2.2s-2.26-3.44-2.26-5.91c0-2.74 1.02-4.86 3.08-6.36 2.05-1.5 4.95-2.25 8.7-2.25 3.85 0 6.88 0.88 9.09 2.64 2.2 1.75 3.3 4.16 3.3 7.21 0 0.99-0.08 1.93-0.25 2.84-0.16 0.9-0.4 1.78-0.72 2.64m-11.23-6.69c0-0.94-0.34-1.66-1.02-2.14-0.69-0.48-1.71-0.72-3.08-0.72-1.35 0-2.37 0.24-3.06 0.72s-1.03 1.2-1.03 2.14c0 0.95 0.34 1.67 1.03 2.14 0.69 0.48 1.71 0.72 3.06 0.72 1.37 0 2.39-0.24 3.08-0.72 0.68-0.47 1.02-1.19 1.02-2.14" style="fill:#000000" id="path3341"/>
      <path d="m54.033 415.08v9.23h-4.421v-15.25h4.421l7.516 7.66c0.688 0.69 1.359 1.19 2.016 1.52 0.656 0.33 1.338 0.5 2.047 0.5 1.093 0 1.974-0.34 2.64-1 0.667-0.66 1-1.54 1-2.63 0-0.84-0.203-1.77-0.609-2.78-0.396-1-0.99-2.07-1.781-3.22h5.125c0.448 1.22 0.786 2.42 1.015 3.61 0.24 1.2 0.36 2.37 0.36 3.52 0 2.51-0.615 4.45-1.844 5.84s-2.943 2.09-5.141 2.09c-1.271 0-2.458-0.29-3.562-0.89-1.094-0.58-2.563-1.82-4.407-3.72l-4.375-4.48m18.907 13.69v15.82h-3.391l-19.937-8.18v-5.28l18.906 7.75v-10.11h4.422" style="fill:#000000" id="path3343"/>
      <rect x="26.388" y="381.05" width="22.223" height="5.5558" style="fill:#000000" id="rect3347"/>
      <rect x="26.388" y="390.61" width="22.223" height="5.5558" style="fill:#000000" id="rect3349"/>
      <rect x="26.388" y="400.16" width="22.223" height="5.5558" style="fill:#000000" id="rect3351"/>
      <rect x="26.388" y="409.72" width="22.223" height="5.5558" style="fill:#000000" id="rect3353"/>
      <rect x="26.388" y="419.27" width="22.223" height="5.5558" style="fill:#000000" id="rect3355"/>
      <rect x="26.388" y="428.83" width="22.223" height="5.5558" style="fill:#000000" id="rect3357"/>
      <rect x="26.388" y="438.38" width="22.223" height="5.5558" style="fill:#000000" id="rect3359"/>
      <rect x="26.388" y="447.94" width="22.223" height="5.5558" style="fill:#000000" id="rect3361"/>
      <rect x="26.388" y="457.5" width="22.223" height="5.5558" style="fill:#000000" id="rect3363"/>
      <rect x="26.388" y="467.05" width="22.223" height="5.5558" style="fill:#000000" id="rect3365"/>
      <rect x="693.88" y="381.05" width="22.223" height="5.5558" style="fill:#000000" id="rect3369"/>
      <rect x="693.88" y="390.61" width="22.223" height="5.5558" style="fill:#000000" id="rect3371"/>
      <rect x="693.88" y="400.16" width="22.223" height="5.5558" style="fill:#000000" id="rect3373"/>
      <rect x="693.88" y="409.72" width="22.223" height="5.5558" style="fill:#000000" id="rect3375"/>
      <rect x="693.88" y="419.27" width="22.223" height="5.5558" style="fill:#000000" id="rect3377"/>
      <rect x="693.88" y="428.83" width="22.223" height="5.5558" style="fill:#000000" id="rect3379"/>
      <rect x="693.88" y="438.38" width="22.223" height="5.5558" style="fill:#000000" id="rect3381"/>
      <rect x="693.88" y="447.94" width="22.223" height="5.5558" style="fill:#000000" id="rect3383"/>
      <rect x="693.88" y="457.5" width="22.223" height="5.5558" style="fill:#000000" id="rect3385"/>
      <rect x="693.88" y="467.05" width="22.223" height="5.5558" style="fill:#000000" id="rect3387"/>
      <path d="m637.19 424.05h22.23v5.56h-22.23v-5.56z" style="fill:#000000" id="rect3389"/>
      <path d="m593.19 424.05h22.23v5.56h-22.23v-5.56z" style="fill:#000000" id="rect3391"/>
      <path d="m543.19 424.05h22.23v5.56h-22.23v-5.56z" style="fill:#000000" id="rect3393"/>
      <path d="m543.19 424.05h22.23v5.56h-22.23v-5.56z" style="fill:#000000" id="rect3395"/>
      <path d="m401.19 424.05h22.23v5.56h-22.23v-5.56z" style="fill:#000000" id="rect3397"/>
      <path d="m357.19 424.05h22.23v5.56h-22.23v-5.56z" style="fill:#000000" id="rect3399"/>
      <path d="m307.19 424.05h22.23v5.56h-22.23v-5.56z" style="fill:#000000" id="rect3401"/>
      <path d="m261.19 424.05h22.23v5.56h-22.23v-5.56z" style="fill:#000000" id="rect3403"/>
      <path d="m217.19 424.05h22.23v5.56h-22.23v-5.56z" style="fill:#000000" id="rect3405"/>
      <path d="m167.19 424.05h22.23v5.56h-22.23v-5.56z" style="fill:#000000" id="rect3407"/>
      <path d="m121.19 424.05h22.23v5.56h-22.23v-5.56z" style="fill:#000000" id="rect3409"/>
      <path d="m77.193 424.05h22.223v5.56h-22.223v-5.56z" style="fill:#000000" id="rect3411"/>
      <path d="m555.61 392.62h51.45v3.06h-51.45v-3.06z" style="fill:#000000" id="rect3413"/>
      <path d="m555.61 396.84h51.45v3.05h-51.45v-3.05z" style="fill:#000000" id="rect3415"/>
      <path d="m555.61 401.12h51.45v3.06h-51.45v-3.06z" style="fill:#000000" id="rect3417"/>
      <path d="m555.61 405.05h51.45v3.06h-51.45v-3.06z" style="fill:#000000" id="rect3419"/>
      <path d="m555.61 447.34h51.45v3.05h-51.45v-3.05z" style="fill:#000000" id="rect3421"/>
      <path d="m555.61 451.55h51.45v3.06h-51.45v-3.06z" style="fill:#000000" id="rect3423"/>
      <path d="m555.61 455.84h51.45v3.05h-51.45v-3.05z" style="fill:#000000" id="rect3425"/>
      <path d="m555.61 459.77h51.45v3.05h-51.45v-3.05z" style="fill:#000000" id="rect3427"/>
      <path d="m137.61 392.62h51.45v3.06h-51.45v-3.06z" style="fill:#000000" id="rect3429"/>
      <path d="m137.61 396.84h51.45v3.05h-51.45v-3.05z" style="fill:#000000" id="rect3431"/>
      <path d="m137.61 401.12h51.45v3.06h-51.45v-3.06z" style="fill:#000000" id="rect3433"/>
      <path d="m137.61 405.05h51.45v3.06h-51.45v-3.06z" style="fill:#000000" id="rect3435"/>
      <path d="m137.61 447.34h51.45v3.05h-51.45v-3.05z" style="fill:#000000" id="rect3437"/>
      <path d="m137.61 451.55h51.45v3.06h-51.45v-3.06z" style="fill:#000000" id="rect3439"/>
      <path d="m137.61 455.84h51.45v3.05h-51.45v-3.05z" style="fill:#000000" id="rect3441"/>
      <path d="m137.61 459.77h51.45v3.05h-51.45v-3.05z" style="fill:#000000" id="rect3443"/>
      <path d="m447.19 424.05h22.23v5.56h-22.23v-5.56z" style="fill:#000000" id="rect3445"/>
      <path d="m497.19 424.05h22.23v5.56h-22.23v-5.56z" style="fill:#000000" id="rect3447"/>
    </g>
  </g>
  <metadata>
    
      
        image/svg+xml
        
        
        
          
            Openclipart
          
        
        Airport Runway - Top View
        2008-10-04T06:00:20
        Simple diagram of a single airport runway; no taxiways, just one runway.
\n
\nTwo versions: One grey &amp; black, one strictly black &amp; white.
        https://openclipart.org/detail/19521/airport-runway---top-view-by-wirelizard
        
          
            wirelizard
          
        
        
          
            aircraft
            airplane
            airport
            diagram
            flight
            flying
            landing
            outline
            runway
            symbol
            takeoff
          
        
      
      
        
        
        
      
    
  </metadata>
</svg>